<?xml version="1.0" standalone="no"?>
<!DOCTYPE svg PUBLIC "-//W3C//DTD SVG 20010904//EN"
 "http://www.w3.org/TR/2001/REC-SVG-20010904/DTD/svg10.dtd">
<svg version="1.0" xmlns="http://www.w3.org/2000/svg"
 width="1024.000000pt" height="1024.000000pt" viewBox="0 0 1024.000000 1024.000000"
 preserveAspectRatio="xMidYMid meet">
<metadata>
Created by potrace 1.11, written by Peter Selinger 2001-2013
</metadata>
<g transform="translate(0.000000,1024.000000) scale(0.100000,-0.100000)"
fill="#000000" stroke="none">
<path d="M2295 8999 c-259 -33 -517 -161 -705 -349 -193 -193 -316 -447 -350
-720 -14 -113 -14 -5489 0 -5611 32 -278 155 -533 350 -729 195 -195 444 -315
725 -349 127 -15 5483 -15 5610 0 281 34 530 154 725 349 195 195 315 444 349
725 15 121 15 5480 1 5610 -31 273 -156 530 -350 725 -193 193 -447 316 -720
350 -106 13 -5532 12 -5635 -1z m2411 -2275 c520 -498 951 -903 958 -901 6 2
344 106 751 230 755 231 903 269 1098 283 73 5 100 1 250 -35 92 -22 179 -48
193 -57 41 -28 54 -65 56 -166 2 -81 -1 -100 -24 -149 -41 -89 -170 -207 -327
-298 -108 -63 -308 -131 -1059 -361 -392 -120 -715 -220 -716 -222 -2 -2 -536
-2459 -554 -2546 -2 -12 -9 -22 -14 -22 -6 0 -126 -36 -267 -80 -141 -44 -260
-80 -265 -80 -6 0 -7 482 -3 1195 5 944 4 1195 -6 1195 -6 0 -228 -67 -492
-148 l-480 -147 -220 -362 c-121 -199 -223 -365 -227 -368 -9 -9 -541 -176
-545 -171 -2 2 30 239 72 527 42 287 74 528 73 535 -2 6 -109 128 -238 270
-129 142 -290 319 -358 393 -67 74 -121 135 -120 136 2 2 126 40 275 85 l272
83 384 -176 c210 -98 391 -177 401 -177 16 0 967 288 974 295 2 2 -738 1094
-1233 1819 -59 86 -105 159 -102 162 7 8 509 162 530 163 10 1 394 -359 963
-905z"/>
</g>
</svg>
